<svg height="470pt" viewBox="-15 0 470 470.60006" width="470pt" xmlns="http://www.w3.org/2000/svg"><path d="m437.078125 139.078125c5.945313 9.054687 3.429687 21.210937-5.617187 27.160156l-6.53125 4.292969v-.011719l-13.679688-20.828125-13.679688-20.820312 6.519532-4.292969c9.046875-5.945313 21.207031-3.429687 27.148437 5.621094zm0 0" fill="#e48e66"/><path d="m424.929688 170.519531v.011719l-48.140626 31.628906-45.480468 29.878906-119.5 78.519532-13.6875-20.828125 213.128906-140.039063zm0 0" fill="#e2d574"/><path d="m411.25 149.691406-213.128906 140.039063-13.679688-20.832031 146.867188-96.5 45.480468-29.878907 20.78125-13.648437zm0 0" fill="#f8ec7d"/><path d="m274.128906 415.96875c1.707032-.578125 3.257813-1.542969 4.53125-2.820312l49.199219-49.199219c.957031-.960938 1.738281-2.074219 2.320313-3.300781.746093-1.566407 1.132812-3.28125 1.128906-5.019532v-123.589844l45.480468-29.878906v248.839844c-.003906 10.828125-8.78125 19.601562-19.609374 19.601562h-337.269532c-10.828125 0-19.605468-8.773437-19.609375-19.601562v-407.859375c0-10.832031 8.777344-19.609375 19.609375-19.609375h135.351563c-1.335938 3.777344-2.015625 7.753906-2.011719 11.757812v17.652344h-64.710938v24.589844h-32.960937c-5.410156 0-9.796875 4.386719-9.796875 9.796875v319.472656c0 5.410157 4.386719 9.800781 9.796875 9.800781h214.761719c1.289062-.003906 2.570312-.214843 3.789062-.632812zm0 0" fill="#6fe3ff"/><path d="m376.789062 43.140625v99.378906l-45.480468 29.878907v-85.070313c0-5.410156-4.386719-9.796875-9.796875-9.796875h-32.960938v-24.589844h-64.710937v-17.652344c.003906-4.003906-.675782-7.980468-2.011719-11.757812h135.351563c10.832031 0 19.609374 8.777344 19.609374 19.609375zm0 0" fill="#6fe3ff"/><path d="m156.46875 317.101562 55.339844-6.542968 119.5-78.519532v123.589844c.003906 1.738282-.382813 3.453125-1.128906 5.019532l-1.21875-.386719h-35.222657c-10.828125 0-19.609375 8.777343-19.609375 19.609375v36.097656c-1.21875.417969-2.5.628906-3.789062.632812h-214.761719c-5.410156 0-9.796875-4.390624-9.796875-9.800781v-319.472656c0-5.410156 4.386719-9.796875 9.796875-9.796875h32.960937v22.46875h200.011719v-22.46875h32.960938c5.410156 0 9.796875 4.386719 9.796875 9.796875v85.070313l-146.867188 96.5zm0 0" fill="#e48e66"/><path d="m328.960938 360.261719 1.21875.386719c-.582032 1.226562-1.363282 2.339843-2.320313 3.300781l-49.199219 49.199219c-1.273437 1.277343-2.824218 2.242187-4.53125 2.820312v-36.097656c0-10.832032 8.78125-19.609375 19.609375-19.609375zm0 0" fill="#cc7350"/><g fill="#f8ec7d"><path d="m221.828125 23.53125c1.335937 3.777344 2.015625 7.753906 2.011719 11.757812v17.652344h64.710937v47.058594h-200.011719v-47.058594h64.710938v-17.652344c.003906-17.1875 12.390625-31.875 29.332031-34.78125 16.945313-2.90625 33.515625 6.816407 39.246094 23.023438zm0 0"/><path d="m198.121094 289.730469 13.6875 20.828125-55.339844 6.542968 27.972656-48.203124zm0 0"/><path d="m288.550781 167.941406h-25.609375c-3.316406 0-6-2.6875-6-6 0-3.316406 2.683594-6 6-6h25.609375c3.3125 0 6 2.683594 6 6 0 3.3125-2.6875 6-6 6zm0 0"/><path d="m239.980469 167.941406h-89.820313c-3.3125 0-6-2.6875-6-6 0-3.316406 2.6875-6 6-6h89.820313c3.3125 0 6 2.683594 6 6 0 3.3125-2.6875 6-6 6zm0 0"/><path d="m126.738281 167.941406h-38.199219c-3.3125 0-6-2.6875-6-6 0-3.316406 2.6875-6 6-6h38.199219c3.316407 0 6 2.683594 6 6 0 3.3125-2.683593 6-6 6zm0 0"/><path d="m225.71875 220.808594h-106.390625c-3.3125 0-6-2.683594-6-6 0-3.3125 2.6875-6 6-6h106.390625c3.316406 0 6 2.6875 6 6 0 3.316406-2.683594 6-6 6zm0 0"/><path d="m99.679688 220.808594h-11.140626c-3.3125 0-6-2.683594-6-6 0-3.3125 2.6875-6 6-6h11.140626c3.3125 0 6 2.6875 6 6 0 3.316406-2.6875 6-6 6zm0 0"/><path d="m159.800781 276.96875h-71.261719c-3.3125 0-6-2.683594-6-6 0-3.3125 2.6875-6 6-6h71.261719c3.3125 0 6 2.6875 6 6 0 3.316406-2.6875 6-6 6zm0 0"/><path d="m117.351562 328.871094h-28.8125c-3.3125 0-6-2.6875-6-6 0-3.316406 2.6875-6 6-6h28.8125c3.3125 0 6 2.683594 6 6 0 3.3125-2.6875 6-6 6zm0 0"/></g><path d="m147.199219 329.199219c-2.652344.003906-4.988281-1.738281-5.75-4.277344s.234375-5.277344 2.449219-6.734375l9.28125-6.101562c1.792968-1.191407 4.085937-1.335938 6.007812-.371094 1.925781.960937 3.1875 2.882812 3.308594 5.03125.121094 2.148437-.917969 4.195312-2.722656 5.367187l-9.28125 6.101563c-.976563.644531-2.121094.984375-3.292969.984375zm0 0" fill="#e2d574"/></svg>